<svg width="16" height="16" viewBox="0 0 16 16" fill="none" xmlns="http://www.w3.org/2000/svg">
<path fill-rule="evenodd" clip-rule="evenodd" d="M11.2087 12.7787L8.64824 11.4114L8.84765 12.5371L8.89706 13.6861L10.4875 13.159L11.2087 12.7787Z" fill="#DFCEC3"/>
<path fill-rule="evenodd" clip-rule="evenodd" d="M4.90259 12.8465L7.31059 11.2148L7.13412 12.5372L7.05362 13.6975L5.64661 13.308L4.90259 12.8465Z" fill="#DFCEC3"/>
<path fill-rule="evenodd" clip-rule="evenodd" d="M5.12671 12.9849L6.86381 13.4736V12.8345L7.00561 12.6841H7.99824V13.436V13.9624H6.93471L5.62302 13.3609L5.12671 12.9849Z" fill="#CDBDB2"/>
<path fill-rule="evenodd" clip-rule="evenodd" d="M10.7993 12.9849L9.09767 13.4736V12.8345L8.95587 12.6841H7.96324V13.436V13.9624H9.02677L10.3385 13.3609L10.7993 12.9849Z" fill="#CDBDB2"/>
<path fill-rule="evenodd" clip-rule="evenodd" d="M7.00582 11.5938L6.86401 12.8345L7.04127 12.6841H8.88472L9.09743 12.8345L8.95562 11.5938L8.67201 11.4058L7.25397 11.4434L7.00582 11.5938Z" fill="#171717"/>
<path fill-rule="evenodd" clip-rule="evenodd" d="M6.04858 3.20923L6.89941 5.31474L7.28937 11.4433H8.67196L9.09737 5.31474L9.87729 3.20923H6.04858Z" fill="#F8911E"/>
<path fill-rule="evenodd" clip-rule="evenodd" d="M12.2722 10.6166L10.1641 10.4885L10.7982 12.9847L12.2722 10.6166Z" fill="#D46C17"/>
<path fill-rule="evenodd" clip-rule="evenodd" d="M13.5987 7.83376L14.5913 10.8792L12.1097 10.7288L10.5144 10.6563V9.4129L10.5853 6.70581L10.9399 7.0066L13.5987 7.83376Z" fill="#F8911D"/>
<path fill-rule="evenodd" clip-rule="evenodd" d="M11.7197 8.17236L8.81274 8.24756L9.1318 9.82669L10.5144 9.45071L11.7197 8.17236Z" fill="#D46D18"/>
<path fill-rule="evenodd" clip-rule="evenodd" d="M11.719 8.17188L10.5143 9.41298V10.6161L11.719 8.17188Z" fill="#E88123"/>
<path fill-rule="evenodd" clip-rule="evenodd" d="M10.584 9.41309L9.09737 9.82671L8.63651 11.4434L9.06893 11.7049L10.5036 10.8639L10.584 9.41309Z" fill="#F8911E"/>
<path fill-rule="evenodd" clip-rule="evenodd" d="M10.515 10.6538L10.7986 12.9849L8.95513 11.6314L10.515 10.6538Z" fill="#E8821E"/>
<path fill-rule="evenodd" clip-rule="evenodd" d="M8.8137 8.24731L8.63645 11.4432L9.16821 9.80765L8.8137 8.24731Z" fill="#E88023"/>
<path fill-rule="evenodd" clip-rule="evenodd" d="M13.8118 14.0001L10.7954 12.9827L12.1857 10.7324L14.592 10.8776L13.8118 14.0001Z" fill="#E8811E"/>
<path fill-rule="evenodd" clip-rule="evenodd" d="M9.02545 5.3147L10.5498 6.66824L11.7197 8.17218L8.81274 8.28497L9.02545 5.3147Z" fill="#E8821E"/>
<path fill-rule="evenodd" clip-rule="evenodd" d="M9.59357 8.92432L9.20361 9.78908L10.5862 9.4131L9.59357 8.92432Z" fill="#393939"/>
<path fill-rule="evenodd" clip-rule="evenodd" d="M13.8467 1.44214L9.02535 5.31478L9.84072 3.20927L13.8467 1.44214Z" fill="#E88F35"/>
<path fill-rule="evenodd" clip-rule="evenodd" d="M13.847 1.44214L14.4851 3.51005L14.1306 5.76596L14.3788 5.91635L14.0242 6.25474L14.3079 6.51793L13.9179 6.89391L14.166 7.1195L13.5988 7.87147L10.94 7.00671C9.64014 5.90382 9.00202 5.33984 9.02565 5.31478C9.04929 5.28971 10.6564 3.99883 13.847 1.44214Z" fill="#814717"/>
<path fill-rule="evenodd" clip-rule="evenodd" d="M3.65308 10.6166L5.76122 10.4885L5.12709 12.9847L3.65308 10.6166Z" fill="#D46C17"/>
<path fill-rule="evenodd" clip-rule="evenodd" d="M2.32588 7.83376L1.33325 10.8792L3.81482 10.7288L5.41012 10.6563V9.4129L5.33921 6.70581L4.9847 7.0066L2.32588 7.83376Z" fill="#F8911D"/>
<path fill-rule="evenodd" clip-rule="evenodd" d="M4.20557 8.17236L7.11255 8.24756L6.79349 9.82669L5.4109 9.45071L4.20557 8.17236Z" fill="#D46D18"/>
<path fill-rule="evenodd" clip-rule="evenodd" d="M4.20557 8.17188L5.41026 9.41298V10.6161L4.20557 8.17188Z" fill="#E88123"/>
<path fill-rule="evenodd" clip-rule="evenodd" d="M5.34131 9.41309L6.82792 9.82671L7.28879 11.4434L6.85636 11.705L5.42166 10.8639L5.34131 9.41309Z" fill="#F8911E"/>
<path fill-rule="evenodd" clip-rule="evenodd" d="M5.41032 10.6538L5.12671 12.9849L6.97016 11.6314L5.41032 10.6538Z" fill="#E8821E"/>
<path fill-rule="evenodd" clip-rule="evenodd" d="M7.11159 8.24731L7.28884 11.4432L6.75708 9.80765L7.11159 8.24731Z" fill="#E88023"/>
<path fill-rule="evenodd" clip-rule="evenodd" d="M2.11351 14.0001L5.12989 12.9827L3.73962 10.7324L1.33325 10.8776L2.11351 14.0001Z" fill="#E8811E"/>
<path fill-rule="evenodd" clip-rule="evenodd" d="M6.89984 5.3147L5.37545 6.66824L4.20557 8.17218L7.11255 8.28497L6.89984 5.3147Z" fill="#E8821E"/>
<path fill-rule="evenodd" clip-rule="evenodd" d="M6.33172 8.92432L6.72168 9.78908L5.33909 9.4131L6.33172 8.92432Z" fill="#393939"/>
<path fill-rule="evenodd" clip-rule="evenodd" d="M2.07788 1.44214L6.89922 5.31478L6.08384 3.20927L2.07788 1.44214Z" fill="#E88F35"/>
<path fill-rule="evenodd" clip-rule="evenodd" d="M2.0783 1.44214L1.44019 3.51005L1.7947 5.76596L1.54654 5.91635L1.90105 6.25474L1.61744 6.51793L2.0074 6.89391L1.75924 7.1195L2.32646 7.87147L4.98528 7.00671C6.28515 5.90382 6.92327 5.33984 6.89964 5.31478C6.876 5.28971 5.26889 3.99883 2.0783 1.44214Z" fill="#814717"/>
</svg>
