<svg width="15" height="10" viewBox="0 0 15 10" fill="none" xmlns="http://www.w3.org/2000/svg">
<path d="M3.16932 2.49032C5.56114 0.0588912 9.43904 0.0588912 11.8309 2.49032L12.1187 2.78294C12.2383 2.90452 12.2383 3.10162 12.1187 3.22319L11.134 4.22421C11.0742 4.285 10.9773 4.285 10.9175 4.22421L10.5213 3.82152C8.85275 2.1253 6.14743 2.1253 4.47884 3.82152L4.05461 4.25277C3.99482 4.31355 3.89787 4.31355 3.83808 4.25277L2.85337 3.25175C2.73378 3.13018 2.73378 2.93307 2.85337 2.8115L3.16932 2.49032ZM13.8673 4.56052L14.7437 5.45143C14.8633 5.573 14.8633 5.77011 14.7437 5.89168L10.792 9.9089C10.6724 10.0305 10.4785 10.0305 10.3589 9.9089C10.3589 9.9089 10.3589 9.9089 10.3589 9.9089L7.55424 7.05776C7.52434 7.02737 7.47587 7.02737 7.44597 7.05776C7.44597 7.05776 7.44597 7.05777 7.44597 7.05777L4.64135 9.9089C4.52176 10.0305 4.32786 10.0305 4.20827 9.90891C4.20827 9.9089 4.20827 9.9089 4.20827 9.9089L0.256441 5.89163C0.13685 5.77006 0.13685 5.57295 0.256441 5.45138L1.13284 4.56047C1.25243 4.4389 1.44632 4.4389 1.56591 4.56047L4.37064 7.41165C4.40054 7.44204 4.44901 7.44204 4.47891 7.41165C4.47891 7.41165 4.47891 7.41165 4.47891 7.41165L7.2835 4.56047C7.40309 4.4389 7.59698 4.43889 7.71657 4.56046C7.71658 4.56047 7.71658 4.56047 7.71658 4.56047L10.5213 7.41165C10.5512 7.44204 10.5997 7.44204 10.6296 7.41165L13.4343 4.56052C13.5538 4.43895 13.7477 4.43895 13.8673 4.56052Z" fill="#3B99FC"/>
</svg>
